<?xml version="1.0" encoding="UTF-8"?>
<!DOCTYPE svg PUBLIC "-//W3C//DTD SVG 1.1//EN" "http://www.w3.org/Graphics/SVG/1.1/DTD/svg11.dtd">
<!-- Creator: CorelDRAW X8 -->
<svg xmlns="http://www.w3.org/2000/svg" xml:space="preserve" width="166.577mm" height="166.577mm" version="1.1" style="shape-rendering:geometricPrecision; text-rendering:geometricPrecision; image-rendering:optimizeQuality; fill-rule:evenodd; clip-rule:evenodd"
viewBox="0 0 16658 16658"
 xmlns:xlink="http://www.w3.org/1999/xlink">
 <defs>
  <style type="text/css">
   <![CDATA[
    .fil3 {fill:none}
    .fil0 {fill:black}
    .fil1 {fill:black}
    .fil2 {fill:black;fill-rule:nonzero}
   ]]>
  </style>
 </defs>
 <g id="Capa_x0020_1">
  <metadata id="CorelCorpID_0Corel-Layer"/>
  <g id="_2588982452784">
   <g>
    <path class="fil0" d="M6305 4522l0 -98 704 0 741 1734 714 -1734 620 0 0 98 -31 4c-134,8 -213,26 -237,54 -25,27 -38,113 -38,258l0 570 -326 441 0 -1098 -770 1859 -118 0 -769 -1884 0 1660c0,144 13,231 38,259 24,28 103,46 237,55l31 2 0 98 -796 0 0 -98 32 -2c133,-9 213,-27 237,-55 25,-28 38,-115 38,-259l0 -1548c0,-145 -12,-231 -37,-258 -24,-28 -103,-46 -238,-54l-32 -4z"/>
    <path class="fil0" d="M8778 7428l0 632c0,143 11,229 34,258 23,30 91,48 203,55l32 2 0 99 -925 0 0 -99 31 -2c134,-8 213,-27 237,-55 25,-28 38,-114 38,-258l0 -1118 357 -483 0 861 121 0c427,0 641,-198 641,-596 0,-188 -40,-322 -120,-401 -80,-78 -217,-117 -410,-117l-44 0 86 -117 84 -2c508,0 761,200 761,600 0,332 -168,555 -504,667l474 703c106,147 176,235 208,264 32,28 74,44 126,46 16,2 52,4 111,6l33 2 0 99 -623 0 -665 -1046 -286 0zm-656 -1319l0 -12 8 0 -8 12z"/>
    <polygon class="fil1" points="9433,4949 9533,4949 7346,7949 7246,7949 "/>
   </g>
   <g>
    <path class="fil2" d="M1929 10219l170 409 0 5 -85 0 -44 -110 -185 0 -43 110 -83 0 0 -5 169 -409 101 0zm-121 245l139 0 -70 -177 -69 177zm643 106l220 0 0 63 -301 0 0 -414 81 0 0 351zm860 162l-162 -93c-11,1 -21,2 -32,2 -48,0 -88,-9 -121,-27 -34,-18 -59,-43 -76,-76 -17,-33 -25,-70 -25,-113 0,-48 10,-88 31,-120 20,-32 47,-56 82,-71 34,-15 72,-23 114,-23 47,0 88,9 121,27 33,18 58,43 75,76 17,33 25,70 25,113 0,44 -10,83 -30,115 -21,32 -48,56 -83,73l125 56 -44 61zm-332 -308c0,48 12,86 35,114 23,28 58,42 103,42 31,0 57,-6 78,-19 22,-13 38,-30 48,-53 11,-23 16,-49 16,-80 0,-32 -5,-59 -15,-82 -10,-24 -25,-42 -46,-55 -20,-13 -46,-19 -76,-19 -32,0 -58,6 -79,19 -22,12 -38,30 -48,53 -11,23 -16,49 -16,80zm838 217c-44,0 -81,-8 -110,-23 -29,-15 -51,-36 -64,-62 -14,-26 -21,-56 -21,-90l0 -247 81 0 0 235c0,40 10,70 28,92 19,22 49,33 91,33 77,0 115,-40 115,-120l0 -240 81 0 0 245c0,42 -8,75 -26,101 -17,27 -41,46 -71,58 -30,12 -65,18 -104,18zm505 -8l0 -414 82 0 0 414 -82 0zm478 -63l220 0 0 63 -301 0 0 -414 81 0 0 351zm573 2l220 0 0 61 -302 0 0 -414 298 0 0 60 -216 0 0 114 188 0 -9 59 -179 0 0 120zm867 56l0 5 -92 0 -125 -157 -55 0 0 157 -82 0 0 -414 153 0c38,0 70,6 96,16 26,11 45,26 58,44 13,19 20,41 20,65 0,30 -9,55 -27,77 -18,22 -44,38 -78,46l132 161zm-272 -209l61 0c32,0 57,-6 74,-18 17,-12 26,-30 26,-54 0,-22 -8,-39 -23,-51 -16,-11 -38,-17 -68,-17l-70 0 0 140zm625 153l221 0 0 61 -302 0 0 -414 298 0 0 60 -217 0 0 114 189 0 -10 59 -179 0 0 120zm649 69c-35,0 -67,-4 -96,-13 -29,-8 -55,-20 -77,-35l38 -52c21,14 43,23 66,30 22,6 44,9 65,9 32,0 56,-5 72,-15 17,-9 25,-24 25,-43 0,-11 -3,-21 -8,-28 -6,-8 -16,-15 -30,-21 -13,-7 -33,-14 -60,-23l-13 -4c-31,-10 -55,-20 -73,-30 -19,-9 -33,-21 -45,-36 -11,-15 -17,-34 -17,-57 0,-25 8,-46 23,-63 16,-16 36,-29 61,-37 24,-8 51,-12 79,-12 58,0 111,14 159,43l-38 51c-21,-12 -41,-20 -60,-26 -19,-5 -40,-8 -63,-8 -24,0 -44,4 -58,12 -14,9 -22,21 -22,37 0,9 3,17 8,23 6,7 15,13 28,20 12,6 31,13 55,21l14 4c31,10 56,20 75,29 20,9 36,22 49,38 14,16 20,38 20,63 0,27 -7,49 -22,68 -15,18 -36,32 -62,41 -27,9 -57,14 -93,14zm777 -422c80,0 141,16 184,48 42,33 64,85 64,159 0,46 -11,85 -33,116 -22,31 -53,53 -91,68 -39,15 -83,23 -132,23l-137 0 0 -414 145 0zm-19 352c41,0 74,-4 101,-12 26,-8 46,-23 60,-44 14,-21 22,-51 22,-89 0,-51 -13,-88 -40,-111 -26,-22 -67,-34 -121,-34l-67 0 0 290 45 0zm637 1l220 0 0 61 -301 0 0 -414 298 0 0 60 -217 0 0 114 188 0 -9 59 -179 0 0 120zm1025 -353l0 63 -152 0 0 351 -82 0 0 -351 -155 0 0 -63 389 0zm353 353l220 0 0 61 -302 0 0 -414 298 0 0 60 -216 0 0 114 188 0 -9 59 -179 0 0 120zm996 -353l0 414 -81 0 0 -291c-8,20 -18,39 -29,59l-96 172 -69 0 -95 -172c-15,-26 -26,-46 -31,-60l0 292 -82 0 0 -414 91 0 103 182c24,43 40,76 49,99 9,-25 25,-58 48,-99l104 -182 88 0zm472 0c39,0 71,6 97,17 27,10 46,25 59,45 13,19 20,42 20,67 0,27 -7,50 -20,71 -13,21 -34,37 -61,49 -27,13 -60,19 -99,19l-72 0 0 146 -81 0 0 -414 157 0zm-11 208c69,0 103,-26 103,-76 0,-24 -8,-41 -24,-54 -15,-12 -39,-18 -69,-18l-75 0 0 148 65 0zm661 214c-47,0 -88,-9 -121,-27 -33,-18 -58,-43 -75,-76 -17,-33 -25,-70 -25,-113 0,-48 10,-88 30,-120 21,-32 48,-56 82,-71 34,-15 73,-23 114,-23 48,0 88,9 122,27 33,18 58,43 75,76 16,33 24,70 24,113 0,48 -10,88 -30,120 -21,32 -48,56 -82,71 -34,15 -72,23 -114,23zm0 -61c31,0 57,-6 79,-19 21,-13 37,-30 48,-53 10,-23 15,-49 15,-80 0,-32 -5,-59 -15,-82 -10,-24 -25,-42 -45,-55 -21,-13 -46,-19 -77,-19 -31,0 -57,6 -79,19 -21,12 -37,30 -48,53 -10,23 -15,49 -15,80 0,48 11,86 35,114 23,28 57,42 102,42zm870 48l0 5 -92 0 -125 -157 -56 0 0 157 -81 0 0 -414 153 0c38,0 70,6 96,16 26,11 45,26 58,44 13,19 20,41 20,65 0,30 -9,55 -27,77 -18,22 -44,38 -78,46l132 161zm-273 -209l62 0c32,0 57,-6 74,-18 17,-12 26,-30 26,-54 0,-22 -8,-39 -23,-51 -16,-11 -38,-17 -68,-17l-71 0 0 140zm771 -200l170 409 0 5 -85 0 -44 -110 -185 0 -43 110 -83 0 0 -5 169 -409 101 0zm-121 245l139 0 -70 -177 -69 177zm707 -245c80,0 141,16 184,48 42,33 64,85 64,159 0,46 -11,85 -33,116 -22,31 -53,53 -91,68 -39,15 -82,23 -131,23l-138 0 0 -414 145 0zm-19 352c41,0 75,-4 101,-12 26,-8 46,-23 60,-44 15,-21 22,-51 22,-89 0,-51 -13,-88 -40,-111 -26,-22 -66,-34 -121,-34l-67 0 0 290 45 0zm761 -352l170 409 0 5 -86 0 -43 -110 -186 0 -42 110 -84 0 0 -5 170 -409 101 0zm-122 245l139 0 -69 -177 -70 177z"/>
    <path class="fil2" d="M4230 11584l71 382c6,29 10,46 12,51 1,3 4,6 8,8 4,1 17,3 41,5l0 20c-24,-1 -51,-2 -82,-2 -30,0 -57,1 -81,2l0 -20 22 0c15,-1 24,-2 28,-5 5,-3 7,-8 7,-15 0,-6 -2,-18 -5,-37l-19 -109 -165 0 -26 46c-27,47 -43,75 -47,87 -4,8 -6,14 -6,17 0,5 3,8 7,10 5,2 22,4 51,6l0 20c-34,-1 -60,-2 -79,-2 -21,0 -44,1 -68,2l0 -20c18,-1 29,-2 33,-5 4,-2 14,-17 31,-44l236 -397 31 0zm-37 65l-111 189c35,1 62,1 80,1 18,0 39,0 65,-1l-34 -189zm384 -42l2 -13c45,-7 80,-16 106,-28l9 6 -39 187 -6 32 -35 166c-4,22 -6,37 -6,45 0,4 1,8 3,10 1,2 4,3 7,3 9,0 29,-13 60,-38l6 13c-27,23 -53,42 -78,56 -13,7 -23,11 -31,11 -6,0 -11,-2 -14,-7 -4,-4 -6,-10 -6,-18 0,-3 0,-8 1,-15l12 -58c12,-56 23,-106 32,-147l7 -31c7,-35 14,-74 20,-115 3,-20 4,-35 4,-43 0,-8 -2,-12 -5,-14 -4,-1 -20,-2 -49,-2zm299 200l-6 -13c55,-40 92,-60 109,-60 5,0 8,2 11,4 3,3 4,7 4,12 0,7 -7,39 -22,96 -20,80 -30,131 -30,150 0,6 1,10 3,12 2,3 5,4 8,4 9,0 23,-9 43,-25 37,-32 66,-66 84,-101 19,-36 33,-82 42,-141 19,-4 34,-8 45,-11l4 5c-19,63 -34,124 -46,182 -7,37 -11,62 -11,75 0,6 1,10 3,13 2,2 4,3 7,3 7,0 19,-7 36,-21l17 -14 8 11c-54,46 -89,69 -106,69 -4,0 -8,-2 -12,-6 -3,-5 -4,-11 -4,-19 0,-10 2,-23 5,-40l22 -92c-33,51 -69,92 -109,124 -27,21 -47,32 -62,32 -8,0 -14,-3 -19,-8 -5,-6 -7,-14 -7,-25 0,-14 4,-40 13,-77 22,-89 33,-140 33,-154 0,-4 -1,-8 -3,-10 -2,-2 -4,-3 -7,-3 -7,0 -24,9 -53,28zm798 -6l-43 0c1,10 2,18 2,22 0,17 -5,35 -15,54 -9,20 -21,36 -36,48 -15,12 -36,23 -64,32 -9,10 -14,20 -14,30 0,6 2,12 6,17 4,6 14,16 30,29 33,25 53,43 60,52 12,15 17,31 17,47 0,27 -12,49 -37,66 -34,24 -75,36 -124,36 -39,0 -69,-7 -88,-22 -20,-15 -29,-34 -29,-56 0,-24 10,-46 30,-68 21,-22 52,-40 96,-53 -7,-7 -11,-14 -11,-20 0,-7 2,-12 6,-17 4,-5 16,-17 38,-37 -7,1 -13,1 -18,1 -26,0 -46,-7 -61,-22 -15,-15 -23,-35 -23,-61 0,-40 15,-74 44,-102 28,-29 63,-43 104,-43 18,0 33,3 46,9 12,6 22,15 30,28 18,-1 37,-2 58,-4l-4 34zm-90 26c0,-18 -3,-32 -7,-42 -5,-9 -12,-17 -21,-22 -9,-6 -20,-8 -33,-8 -23,0 -41,8 -55,26 -16,21 -25,49 -25,85 0,25 6,43 17,56 12,12 27,18 46,18 14,0 27,-4 37,-11 11,-8 20,-22 28,-41 8,-20 13,-40 13,-61zm-101 224c-35,10 -61,23 -77,40 -17,17 -25,36 -25,56 0,20 8,37 24,50 16,13 39,19 69,19 30,0 54,-6 72,-20 18,-13 27,-28 27,-45 0,-9 -2,-17 -7,-24 -7,-12 -18,-24 -34,-38l-49 -38zm363 -244l-7 -13c56,-40 92,-60 110,-60 4,0 8,2 10,4 3,3 5,7 5,12 0,7 -8,39 -22,96 -20,80 -31,131 -31,150 0,6 1,10 3,12 2,3 5,4 8,4 9,0 23,-9 43,-25 38,-32 66,-66 84,-101 19,-36 33,-82 42,-141 20,-4 35,-8 45,-11l5 5c-19,63 -35,124 -46,182 -8,37 -12,62 -12,75 0,6 1,10 3,13 2,2 4,3 8,3 6,0 18,-7 35,-21l17 -14 8 11c-53,46 -89,69 -105,69 -5,0 -9,-2 -12,-6 -3,-5 -5,-11 -5,-19 0,-10 2,-23 5,-40l22 -92c-33,51 -69,92 -109,124 -26,21 -47,32 -61,32 -8,0 -15,-3 -20,-8 -4,-6 -7,-14 -7,-25 0,-14 5,-40 14,-77 21,-89 32,-140 32,-154 0,-4 -1,-8 -3,-10 -1,-2 -4,-3 -7,-3 -7,0 -24,9 -52,28zm695 168l5 15c-31,26 -57,43 -77,53 -20,9 -39,14 -57,14 -26,0 -45,-8 -59,-22 -14,-15 -20,-36 -20,-64 0,-29 5,-62 17,-98 12,-36 25,-62 40,-78 15,-15 39,-31 72,-47 19,-9 35,-14 50,-14 18,0 32,5 42,15 10,9 16,22 16,36 0,59 -61,100 -182,124 -4,26 -6,45 -6,58 0,17 5,31 15,42 9,11 22,16 37,16 12,0 25,-3 41,-10 15,-6 38,-20 66,-40zm-150 -81c44,-9 77,-22 97,-39 21,-18 31,-37 31,-59 0,-11 -3,-20 -8,-25 -5,-6 -13,-9 -22,-9 -14,0 -27,4 -40,12 -13,8 -23,20 -31,36 -11,21 -20,49 -27,84zm370 -287l2 -13c45,-7 80,-16 105,-28l10 6 -39 187 -7 32 -34 166c-4,22 -6,37 -6,45 0,4 1,8 2,10 2,2 5,3 8,3 9,0 29,-13 59,-38l7 13c-27,23 -53,42 -78,56 -13,7 -23,11 -31,11 -6,0 -11,-2 -15,-7 -4,-4 -5,-10 -5,-18 0,-3 0,-8 1,-15l12 -58c12,-56 22,-106 32,-147l6 -31c8,-35 15,-74 21,-115 3,-20 4,-35 4,-43 0,-8 -2,-12 -6,-14 -3,-1 -19,-2 -48,-2zm450 302l-1 -4c5,-13 10,-26 14,-39 46,2 80,3 104,3 23,0 48,-1 75,-2l1 3c-7,15 -12,28 -15,40 -40,-1 -75,-2 -103,-2 -24,0 -48,1 -75,1zm522 141l2 -18 21 -2c10,-1 17,-2 20,-3 2,-2 5,-4 7,-6 2,-3 4,-9 6,-18 2,-10 9,-52 22,-125l24 -148c9,-56 14,-88 14,-96 0,-9 -3,-15 -8,-18 -5,-3 -22,-6 -51,-8l3 -18c41,1 73,2 94,2l151 -2 54 0c-5,22 -9,55 -11,100l-18 0c-1,-24 -3,-45 -6,-63 -22,-7 -51,-10 -87,-10 -13,0 -34,0 -63,2 -13,67 -25,134 -35,201 29,1 56,2 82,2 32,0 61,-2 87,-7l4 5c-6,13 -11,23 -13,32 -21,-2 -44,-3 -69,-3 -16,0 -48,1 -96,1 -16,91 -25,143 -25,157 0,8 3,14 8,16 4,3 24,6 57,9l0 18c-34,-1 -64,-2 -88,-2 -26,0 -55,1 -86,2zm537 -443l2 -13c45,-7 80,-16 105,-28l10 6 -39 187 -7 32 -34 166c-4,22 -6,37 -6,45 0,4 1,8 2,10 2,2 5,3 8,3 9,0 29,-13 59,-38l7 13c-27,23 -53,42 -78,56 -13,7 -23,11 -31,11 -6,0 -11,-2 -15,-7 -4,-4 -5,-10 -5,-18 0,-3 0,-8 1,-15l12 -58c12,-56 22,-106 32,-147l6 -31c8,-35 15,-74 21,-115 3,-20 4,-35 4,-43 0,-8 -2,-12 -6,-14 -3,-1 -19,-2 -48,-2zm287 346c0,-70 17,-123 53,-161 36,-39 75,-58 117,-58 28,0 51,9 66,26 16,17 24,41 24,73 0,40 -9,78 -26,114 -18,37 -40,64 -66,83 -27,18 -54,27 -81,27 -27,0 -49,-9 -64,-26 -16,-17 -23,-43 -23,-78zm50 -5c0,30 5,52 16,65 11,13 26,19 45,19 29,0 52,-16 68,-48 20,-41 30,-88 30,-141 0,-31 -5,-53 -16,-66 -11,-14 -27,-20 -47,-20 -17,0 -32,5 -44,17 -13,11 -25,33 -36,66 -11,33 -16,69 -16,108zm393 -137l-7 -11c37,-28 65,-47 85,-57 10,-6 19,-9 26,-9 4,0 7,1 10,4 2,2 3,6 3,12 0,7 -1,17 -3,28l-22 98c34,-58 63,-99 87,-122 13,-13 26,-20 37,-20 5,0 11,1 18,4 -5,19 -9,43 -12,70l-9 2c-6,-8 -13,-12 -21,-12 -9,0 -18,3 -28,10 -17,12 -33,31 -48,56 -15,25 -26,53 -34,83 -2,7 -9,40 -21,98 -13,3 -28,7 -45,12l-6 -5c17,-55 29,-109 39,-162 10,-53 15,-86 15,-98 0,-9 -3,-13 -9,-13 -6,0 -25,11 -55,32zm469 -190c0,-11 4,-21 11,-29 8,-9 17,-13 26,-13 8,0 14,2 18,7 4,5 6,12 6,20 0,13 -3,23 -10,31 -8,8 -16,12 -25,12 -8,0 -14,-2 -19,-7 -5,-5 -7,-12 -7,-21zm-82 187l-6 -13c53,-41 89,-61 105,-61 6,0 10,2 12,5 3,3 5,7 5,12 0,14 -5,40 -15,77 -26,95 -39,153 -39,173 0,8 4,11 10,11 8,0 26,-9 53,-28l6 12c-31,25 -56,43 -76,54 -9,5 -16,7 -23,7 -6,0 -11,-3 -15,-8 -5,-5 -7,-13 -7,-22 0,-14 6,-43 18,-85 22,-84 33,-134 33,-151 0,-8 -3,-12 -9,-12 -7,0 -24,9 -52,29zm561 -74l7 5c-21,74 -37,139 -49,196 -6,32 -10,54 -10,64 0,4 1,7 3,9 2,3 4,4 7,4 7,0 23,-10 48,-31l4 15c-23,20 -46,36 -67,49 -11,6 -20,9 -28,9 -6,0 -10,-2 -13,-5 -2,-4 -4,-9 -4,-17 0,-18 7,-54 22,-111l-3 0c-30,45 -63,81 -97,108 -24,19 -41,28 -52,28 -6,0 -11,-3 -15,-10 -5,-10 -8,-24 -8,-43 0,-32 7,-70 19,-114 13,-45 26,-76 40,-95 10,-14 30,-29 59,-45 18,-11 38,-16 58,-16 8,0 17,1 27,3 10,2 21,5 32,9l20 -12zm-50 43c-9,-4 -18,-7 -27,-8 -8,-2 -16,-3 -24,-3 -17,0 -32,3 -45,9 -4,2 -9,9 -15,21 -12,25 -23,56 -32,94 -10,38 -15,72 -15,101 0,8 1,13 4,16 2,4 5,5 8,5 9,0 25,-11 49,-34 23,-22 42,-46 55,-70 19,-33 32,-77 42,-131zm232 32l-6 -14c35,-26 63,-43 83,-54 9,-4 17,-7 24,-7 5,0 9,2 11,5 3,3 5,7 5,13 0,5 -1,11 -3,20l-25 112c19,-31 41,-57 66,-81 25,-24 49,-42 72,-52 23,-11 41,-17 54,-17 6,0 11,2 14,6 4,3 6,9 6,15 0,6 -1,13 -3,20 -2,11 -12,55 -30,131 -14,57 -21,90 -21,99 0,7 4,10 10,10 7,0 19,-6 38,-19l20 -14 6 13c-54,41 -89,62 -107,62 -6,0 -10,-2 -14,-6 -4,-5 -6,-11 -6,-18 0,-13 7,-47 22,-101 20,-77 30,-124 30,-142 0,-4 -1,-8 -4,-10 -2,-3 -5,-4 -9,-4 -13,0 -30,9 -53,27 -33,26 -58,56 -76,92 -18,36 -33,86 -43,152 -12,2 -27,5 -46,10l-5 -6c16,-52 29,-109 41,-170 9,-46 13,-76 13,-89 0,-4 -1,-8 -3,-10 -2,-2 -4,-3 -7,-3 -9,0 -27,10 -54,30zm498 144c0,-70 18,-123 54,-161 35,-39 74,-58 117,-58 28,0 50,9 66,26 16,17 24,41 24,73 0,40 -9,78 -26,114 -18,37 -40,64 -67,83 -26,18 -53,27 -80,27 -28,0 -49,-9 -64,-26 -16,-17 -24,-43 -24,-78zm51 -5c0,30 5,52 16,65 11,13 26,19 45,19 29,0 52,-16 68,-48 20,-41 30,-88 30,-141 0,-31 -5,-53 -16,-66 -11,-14 -27,-20 -47,-20 -17,0 -32,5 -45,17 -12,11 -24,33 -35,66 -11,33 -16,69 -16,108zm99 -266l-23 0 89 -85c13,-12 22,-19 26,-22 4,-2 8,-3 13,-3 5,0 9,2 13,5 3,4 5,9 5,14 0,5 -1,8 -3,11 -4,5 -11,10 -22,18l-98 62zm270 126l-8 -13c41,-28 69,-45 85,-53 11,-5 20,-8 27,-8 5,0 9,2 12,5 3,3 4,8 4,14 0,8 -7,42 -20,103 18,-29 36,-52 54,-68 18,-17 37,-30 59,-39 22,-10 39,-15 52,-15 10,0 18,5 23,14 9,15 14,33 14,56 0,35 -7,71 -22,108 -15,37 -31,63 -47,78 -16,16 -37,31 -61,45 -24,15 -45,22 -64,22 -11,0 -25,-3 -41,-8 -15,70 -25,129 -31,176 -19,2 -35,5 -48,9l-5 -3c22,-92 45,-207 70,-345 9,-52 13,-84 13,-96 0,-5 -1,-8 -3,-11 -2,-2 -5,-3 -8,-3 -7,0 -25,11 -55,32zm72 203c20,12 40,18 59,18 19,0 36,-7 51,-20 15,-13 30,-41 46,-83 16,-42 24,-81 24,-117 0,-13 -2,-23 -6,-28 -4,-6 -10,-8 -18,-8 -19,0 -41,10 -65,30 -24,20 -44,48 -59,83 -9,19 -18,53 -27,101l-5 24zm403 -58c0,-70 18,-123 54,-161 35,-39 74,-58 117,-58 28,0 50,9 66,26 16,17 24,41 24,73 0,40 -9,78 -26,114 -18,37 -40,64 -67,83 -27,18 -54,27 -80,27 -28,0 -49,-9 -65,-26 -15,-17 -23,-43 -23,-78zm51 -5c0,30 5,52 16,65 11,13 26,19 45,19 29,0 51,-16 68,-48 20,-41 30,-88 30,-141 0,-31 -5,-53 -16,-66 -11,-14 -27,-20 -48,-20 -16,0 -31,5 -44,17 -12,11 -24,33 -35,66 -11,33 -16,69 -16,108zm410 -341l2 -13c45,-7 80,-16 105,-28l10 6 -39 187 -7 32 -34 166c-4,22 -6,37 -6,45 0,4 1,8 2,10 2,2 5,3 8,3 9,0 29,-13 59,-38l7 13c-27,23 -53,42 -78,56 -13,7 -23,11 -31,11 -6,0 -11,-2 -15,-7 -4,-4 -5,-10 -5,-18 0,-3 0,-8 1,-15l12 -58c12,-56 22,-106 32,-147l6 -31c8,-35 15,-74 21,-115 3,-20 4,-35 4,-43 0,-8 -2,-12 -6,-14 -3,-1 -19,-2 -48,-2zm378 14c0,-11 3,-21 11,-29 8,-9 17,-13 26,-13 8,0 14,2 18,7 4,5 6,12 6,20 0,13 -3,23 -11,31 -7,8 -15,12 -24,12 -8,0 -14,-2 -19,-7 -5,-5 -7,-12 -7,-21zm-82 187l-7 -13c54,-41 89,-61 106,-61 5,0 9,2 12,5 3,3 4,7 4,12 0,14 -5,40 -14,77 -26,95 -39,153 -39,173 0,8 4,11 10,11 8,0 26,-9 53,-28l6 12c-31,25 -56,43 -76,54 -9,5 -16,7 -23,7 -6,0 -11,-3 -16,-8 -4,-5 -6,-13 -6,-22 0,-14 6,-43 17,-85 23,-84 34,-134 34,-151 0,-8 -3,-12 -10,-12 -6,0 -24,9 -51,29zm321 145l17 0 -1 30 1 24c10,8 22,15 33,19 12,4 25,6 37,6 21,0 38,-6 52,-20 14,-13 20,-30 20,-50 0,-14 -3,-25 -10,-32 -6,-6 -21,-12 -42,-15 -39,-6 -63,-13 -75,-22 -14,-11 -22,-28 -22,-51 0,-17 5,-33 15,-47 10,-14 29,-29 56,-45 19,-10 39,-16 60,-16 10,0 20,2 31,4 11,3 22,7 33,13 -5,19 -9,44 -12,75l-14 0c0,-10 0,-18 0,-25 0,-10 -2,-17 -7,-21 -14,-12 -32,-18 -54,-18 -22,0 -39,6 -51,17 -12,11 -18,25 -18,43 0,15 5,26 15,32 7,5 25,11 53,16 32,6 53,12 63,19 13,10 19,26 19,46 0,29 -14,56 -44,82 -29,27 -62,40 -99,40 -12,0 -24,-2 -35,-5 -12,-3 -23,-7 -35,-13 6,-25 11,-54 14,-86z"/>
   </g>
  </g>
  <rect class="fil3" width="16658" height="16658"/>
 </g>
</svg>
