<?xml version="1.0" encoding="UTF-8"?>
<!DOCTYPE svg PUBLIC "-//W3C//DTD SVG 1.1//EN" "http://www.w3.org/Graphics/SVG/1.1/DTD/svg11.dtd">
<!-- Creator: CorelDRAW X8 -->
<svg xmlns="http://www.w3.org/2000/svg" xml:space="preserve" width="40.4689mm" height="40.5008mm" version="1.1" style="shape-rendering:geometricPrecision; text-rendering:geometricPrecision; image-rendering:optimizeQuality; fill-rule:evenodd; clip-rule:evenodd"
viewBox="0 0 7142 7147"
 xmlns:xlink="http://www.w3.org/1999/xlink">
 <defs>
  <style type="text/css">
   <![CDATA[
    .fil0 {fill:black}
    .fil1 {fill:black}
   ]]>
  </style>
 </defs>
 <g id="Capa_x0020_1">
  <metadata id="CorelCorpID_0Corel-Layer"/>
  <g id="_2589328989440">
   <path class="fil0" d="M0 174l0 -174 1242 0 1307 3061 1259 -3061 1096 0 0 174 -55 6c-236,14 -376,47 -419,96 -44,48 -66,200 -66,455l0 1006 -577 779 0 -1938 -1358 3280 -208 0 -1357 -3325 0 2930c0,254 22,407 66,457 43,50 183,82 420,97l55 3 0 174 -1405 0 0 -174 56 -3c235,-15 375,-47 418,-97 44,-50 66,-203 66,-457l0 -2732c0,-255 -21,-407 -64,-455 -43,-50 -183,-82 -420,-96l-56 -6z"/>
   <path class="fil0" d="M4364 5302l0 1114c0,253 20,405 60,457 41,52 160,84 358,97l56 3 0 174 -1633 0 0 -174 56 -3c235,-15 375,-48 418,-97 44,-50 66,-202 66,-457l0 -1973 631 -851 0 1519 213 0c754,0 1131,-350 1131,-1051 0,-332 -71,-568 -212,-708 -141,-138 -382,-207 -722,-207l-79 0 152 -206 149 -3c895,0 1342,353 1342,1058 0,586 -296,979 -889,1177l837 1240c187,261 309,415 366,466 57,51 131,78 223,82 27,4 93,7 197,11l58 3 0 174 -1101 0 -1172 -1845 -505 0zm-1159 -2328l0 -21 14 0 -14 21z"/>
   <polygon class="fil1" points="5519,927 5695,927 1836,6221 1660,6221 "/>
  </g>
 </g>
</svg>
